<?xml version="1.0" standalone="no"?>
<!DOCTYPE svg PUBLIC "-//W3C//DTD SVG 20010904//EN"
 "http://www.w3.org/TR/2001/REC-SVG-20010904/DTD/svg10.dtd">
<svg version="1.0" xmlns="http://www.w3.org/2000/svg"
 width="512.000000pt" height="512.000000pt" viewBox="0 0 512.000000 512.000000"
 preserveAspectRatio="xMidYMid meet">

<g transform="translate(0.000000,512.000000) scale(0.100000,-0.100000)"
fill="#000000" stroke="none">
<path d="M1975 4872 c-97 -50 -238 -192 -287 -287 -65 -126 -83 -202 -82 -350
1 -112 5 -141 27 -210 36 -108 88 -193 174 -286 101 -109 107 -122 111 -261
l4 -118 -52 0 c-28 0 -60 -5 -71 -10 -24 -14 -359 -680 -359 -715 0 -14 11
-37 25 -50 23 -24 29 -25 160 -25 l135 0 0 -489 0 -489 -80 -20 -80 -20 0 85
c0 76 -2 86 -25 108 l-24 25 -351 0 -351 0 -24 -25 c-21 -20 -25 -34 -25 -80
l0 -55 -295 0 -296 0 -24 -25 -25 -24 0 -591 0 -591 25 -24 24 -25 296 0 295
0 0 -55 c0 -46 4 -60 25 -80 l24 -25 351 0 351 0 24 25 c22 21 25 33 25 95 l0
70 71 -36 c149 -75 142 -74 883 -74 718 0 730 1 839 56 28 15 270 153 537 307
267 154 571 329 675 389 273 157 325 218 325 382 0 145 -92 264 -233 300 l-52
13 -3 437 -2 436 135 0 c131 0 137 1 160 25 14 13 25 36 25 50 0 35 -335 701
-359 715 -11 5 -39 10 -63 10 -38 0 -49 5 -83 40 l-39 40 87 0 c80 0 90 2 112
25 25 24 25 26 25 215 0 189 0 191 -25 215 -22 23 -32 25 -112 25 l-87 0 62
63 c95 95 94 100 -71 264 -164 165 -169 166 -264 71 l-63 -62 0 87 c0 80 -2
90 -25 112 -24 25 -26 25 -215 25 -189 0 -191 0 -215 -25 -23 -22 -25 -32 -25
-112 l0 -87 -63 62 c-95 95 -100 94 -264 -71 -165 -164 -166 -169 -71 -264
l62 -63 -87 0 c-80 0 -90 -2 -112 -25 -25 -24 -25 -26 -25 -215 0 -189 0 -191
25 -215 22 -23 32 -25 112 -25 l87 0 -39 -40 -39 -40 -234 0 -234 0 4 118 c5
140 11 156 112 262 85 90 137 176 173 285 23 69 26 98 27 210 1 148 -17 224
-82 350 -50 96 -181 228 -282 283 -92 51 -138 55 -169 16 -20 -26 -21 -38 -21
-314 l0 -287 -80 -53 -80 -53 -80 53 -80 53 0 287 c0 276 -1 288 -21 314 -30
38 -77 34 -164 -12z m33 -679 c1 -2 66 -46 144 -98 86 -57 153 -95 168 -95 15
0 82 38 168 95 78 52 143 96 144 98 1 1 5 117 8 256 l5 255 67 -68 c154 -153
207 -381 135 -579 -34 -93 -65 -141 -155 -240 -108 -117 -124 -159 -130 -329
l-4 -128 -79 0 -79 0 0 135 c0 131 -1 137 -25 160 -15 16 -36 25 -55 25 -19 0
-40 -9 -55 -25 -24 -23 -25 -29 -25 -160 l0 -135 -80 0 -80 0 0 109 c0 177
-33 255 -162 384 -98 99 -158 250 -158 396 1 139 64 285 170 391 l65 65 5
-255 c3 -140 7 -256 8 -257z m1912 20 c1 -73 5 -114 14 -125 15 -20 92 -57
120 -58 10 0 55 36 100 80 l82 80 57 -58 57 -58 -75 -74 c-42 -41 -78 -85 -81
-97 -7 -25 29 -110 54 -129 11 -9 51 -13 125 -14 l107 0 0 -80 0 -80 -107 0
c-123 -1 -133 -5 -163 -71 -28 -62 -26 -73 21 -124 l42 -45 -194 1 c-107 1
-180 4 -163 8 47 12 133 62 160 94 14 17 37 53 52 81 22 43 26 64 26 136 1
100 -23 159 -89 225 -65 66 -125 90 -225 90 -70 0 -94 -5 -135 -25 -260 -127
-238 -498 35 -593 44 -16 41 -16 -144 -17 l-189 0 42 45 c47 51 49 62 21 124
-30 66 -40 70 -162 71 l-108 0 0 80 0 80 100 0 c54 0 110 5 124 11 24 11 66
90 66 125 0 9 -36 53 -80 98 l-80 82 58 57 58 57 74 -75 c41 -42 85 -78 96
-81 32 -8 119 33 133 62 6 14 11 70 11 124 l0 100 80 0 80 0 0 -107z m-17
-387 c103 -43 128 -177 48 -257 -112 -113 -296 -12 -267 146 18 94 128 150
219 111z m-953 -866 l-120 -240 -590 0 -590 0 120 240 120 240 590 0 590 0
-120 -240z m1680 0 l120 -240 -590 0 -590 0 -120 240 -120 240 590 0 590 0
120 -240z m-1514 -1528 c-3 -2 -193 47 -423 109 -480 129 -539 137 -690 101
l-83 -19 0 468 0 469 493 0 c406 0 496 2 512 14 11 8 58 91 105 185 l85 172 3
-747 c1 -411 0 -749 -2 -752z m363 1138 c13 -6 189 -10 510 -10 l491 0 -2
-452 -3 -451 -398 -230 -398 -229 -48 45 c-63 59 -84 69 -228 107 l-123 33 1
776 0 776 89 -177 c49 -97 98 -182 109 -188z m-2039 -1610 l0 -640 -240 0
-240 0 0 640 0 640 240 0 240 0 0 -640z m3255 541 c16 -9 40 -33 53 -52 20
-28 23 -44 20 -90 -3 -35 -12 -66 -25 -85 -15 -20 -231 -151 -714 -429 -380
-220 -713 -409 -738 -420 -44 -19 -72 -20 -706 -23 -484 -3 -675 0 -715 9 -30
6 -103 36 -162 65 l-108 54 0 424 0 424 245 61 c178 44 263 61 312 61 55 0
175 -29 667 -160 331 -89 620 -168 644 -176 59 -22 94 -71 99 -137 7 -94 -60
-167 -152 -167 -22 0 -258 59 -524 130 -266 72 -492 130 -501 130 -10 0 -29
-9 -44 -21 -33 -26 -37 -86 -7 -114 22 -19 27 -21 606 -175 389 -104 424 -112
490 -108 157 11 277 127 294 288 l6 55 410 237 c226 130 419 239 430 241 31 7
87 -3 120 -22z m-3895 -541 l0 -480 -240 0 -240 0 0 480 0 480 240 0 240 0 0
-480z"/>
</g>
</svg>
