<?xml version="1.0" standalone="no"?>
<!DOCTYPE svg PUBLIC "-//W3C//DTD SVG 20010904//EN"
 "http://www.w3.org/TR/2001/REC-SVG-20010904/DTD/svg10.dtd">
<svg version="1.0" xmlns="http://www.w3.org/2000/svg"
 width="512.000000pt" height="512.000000pt" viewBox="0 0 512.000000 512.000000"
 preserveAspectRatio="xMidYMid meet">

<g transform="translate(0.000000,512.000000) scale(0.100000,-0.100000)"
fill="#000000" stroke="none">
<path d="M702 5064 c-74 -20 -108 -39 -170 -98 -157 -148 -169 -398 -27 -555
21 -23 36 -43 34 -45 -2 -2 -34 -18 -71 -35 -88 -41 -204 -134 -260 -208 -109
-141 -158 -272 -166 -441 -5 -108 -4 -114 18 -137 l23 -25 539 0 c296 0 538
-3 538 -6 0 -4 -20 -38 -44 -78 -25 -39 -63 -110 -85 -157 -42 -89 -111 -284
-111 -313 0 -22 -9 -20 -38 7 l-24 22 -380 0 -380 0 -29 -33 c-30 -34 -36 -69
-18 -105 6 -12 72 -84 147 -159 l137 -138 -137 -137 c-75 -76 -141 -148 -147
-160 -18 -36 -12 -71 18 -105 l29 -33 380 0 380 0 24 23 c29 27 38 28 38 5 0
-10 18 -70 39 -134 168 -497 563 -892 1060 -1060 64 -21 124 -39 134 -39 23 0
22 -9 -5 -38 l-23 -24 0 -380 0 -380 33 -29 c34 -30 69 -36 105 -18 12 6 84
72 160 147 l137 137 138 -137 c75 -75 147 -141 159 -147 36 -18 71 -12 105 18
l33 29 0 380 0 380 -22 24 c-27 28 -29 38 -8 38 40 0 225 69 350 130 403 200
717 565 854 993 17 53 31 104 31 112 0 21 10 19 38 -7 l24 -23 380 0 380 0 29
33 c30 34 36 69 18 105 -6 12 -72 84 -147 160 l-137 137 137 138 c75 75 141
147 147 159 18 36 12 71 -18 105 l-29 33 -380 0 -380 0 -24 -22 c-29 -27 -38
-29 -38 -7 0 29 -69 224 -111 313 -22 47 -60 118 -85 157 -24 40 -44 74 -44
78 0 3 242 6 538 6 l539 0 23 25 c22 23 23 29 18 137 -4 86 -12 132 -32 193
-69 203 -210 367 -396 457 -36 18 -67 33 -69 35 -2 1 13 21 34 44 107 118 129
302 55 448 -38 77 -132 163 -206 191 -319 119 -633 -167 -535 -488 20 -66 72
-150 110 -179 19 -13 22 -11 -54 -47 -166 -78 -317 -235 -380 -393 l-17 -43
-37 28 c-60 47 -181 119 -272 161 -89 42 -284 111 -313 111 -22 0 -20 9 7 38
l22 24 0 380 0 380 -33 29 c-34 30 -69 36 -105 18 -12 -6 -84 -72 -159 -147
l-138 -137 -137 137 c-76 75 -148 141 -160 147 -36 18 -71 12 -105 -18 l-33
-29 0 -380 0 -380 23 -24 c26 -29 28 -38 6 -38 -29 0 -224 -69 -313 -111 -91
-42 -212 -114 -272 -161 l-37 -28 -22 53 c-70 161 -211 306 -375 383 -33 16
-62 30 -64 31 -2 1 17 25 42 53 66 74 91 143 91 260 1 87 -2 101 -31 162 -86
182 -281 274 -471 222z m193 -141 c100 -34 176 -144 174 -252 -2 -142 -122
-257 -264 -255 -72 1 -119 20 -173 69 -58 52 -86 114 -86 191 0 182 176 306
349 247z m3547 -20 c169 -94 178 -326 17 -442 -164 -120 -409 8 -409 214 0
102 76 214 171 248 66 25 155 17 221 -20z m-2060 -140 l108 -108 0 -280 0
-280 -115 115 -115 115 0 272 c0 150 3 273 7 273 4 0 56 -48 115 -107z m478
-166 l0 -272 -115 -115 -115 -115 0 280 0 280 107 107 c59 60 111 108 115 108
5 0 8 -123 8 -273z m-1917 -342 c221 -47 414 -232 471 -452 9 -34 16 -79 16
-102 l0 -41 -626 0 -627 0 7 61 c8 83 46 188 95 262 143 220 405 327 664 272z
m3570 -19 c231 -78 399 -283 423 -515 l7 -61 -627 0 -626 0 0 43 c0 94 62 249
133 335 89 106 221 189 347 217 99 22 246 14 343 -19z m-2121 -243 l98 -98 0
-96 0 -96 -106 -17 c-505 -82 -883 -468 -955 -973 l-11 -83 -97 0 -96 0 -98
98 -97 97 25 105 c45 183 127 365 235 518 l51 72 94 0 c130 0 135 6 135 138
l0 99 78 56 c164 118 336 199 527 248 60 15 112 28 115 29 2 0 49 -44 102 -97z
m576 61 c173 -44 345 -127 505 -241 l77 -56 0 -99 c0 -132 5 -138 135 -138
l94 0 51 -72 c108 -153 190 -335 235 -518 l25 -105 -97 -97 -98 -98 -96 0 -96
0 -17 106 c-82 504 -468 883 -973 955 l-83 11 0 96 0 97 97 97 c84 84 101 97
123 92 14 -3 67 -17 118 -30z m-480 -700 l-3 -206 -73 -19 c-105 -27 -187 -73
-267 -154 -81 -80 -127 -162 -154 -267 l-19 -73 -206 -3 c-172 -2 -206 0 -206
12 0 34 32 179 54 242 98 290 338 528 627 623 68 22 186 48 227 50 l22 1 -2
-206z m249 191 c362 -69 653 -318 769 -659 22 -63 54 -208 54 -242 0 -12 -34
-14 -206 -12 l-206 3 -19 73 c-27 105 -73 187 -154 267 -80 81 -162 127 -267
154 l-73 19 -3 206 c-2 172 0 206 12 206 7 0 50 -7 93 -15z m-247 -662 c0
-106 2 -119 22 -140 27 -29 65 -29 95 -1 22 20 23 29 23 141 l0 120 37 -6
c138 -23 307 -192 330 -330 l6 -37 -119 0 c-107 0 -120 -2 -141 -22 -29 -27
-29 -65 -1 -95 20 -22 29 -23 141 -23 l120 0 -6 -34 c-23 -141 -192 -310 -333
-333 l-34 -6 0 119 c0 107 -2 120 -22 141 -27 29 -65 29 -95 1 -22 -20 -23
-29 -23 -141 l0 -120 -37 6 c-138 23 -307 192 -330 330 l-6 37 119 0 c107 0
120 2 141 22 29 27 29 65 1 95 -20 22 -29 23 -141 23 l-120 0 6 37 c15 87 95
203 185 265 51 35 126 67 160 68 22 0 22 -2 22 -117z m-1580 -138 l115 -115
-280 0 -280 0 -107 107 c-60 59 -108 111 -108 115 0 5 123 8 273 8 l272 0 115
-115z m3960 108 c0 -4 -48 -56 -107 -115 l-108 -108 -280 0 -280 0 115 115
115 115 272 0 c150 0 273 -3 273 -7z m-3960 -478 l-115 -115 -272 0 c-150 0
-273 3 -273 7 0 4 48 56 107 115 l108 108 280 0 280 0 -115 -115z m524 10 c81
-499 452 -870 950 -951 l106 -17 0 -96 0 -96 -98 -98 -97 -97 -103 25 c-278
67 -521 205 -727 410 -207 208 -342 448 -410 726 l-25 104 97 97 98 98 96 0
96 0 17 -105z m557 27 c27 -105 73 -187 154 -267 80 -81 162 -127 267 -154
l73 -19 3 -207 2 -207 -52 7 c-382 52 -703 313 -824 669 -22 63 -54 208 -54
242 0 12 34 14 206 12 l206 -3 19 -73z m1563 26 c-48 -379 -311 -703 -669
-825 -58 -20 -213 -53 -247 -53 -5 0 -7 90 -6 206 l3 206 73 19 c105 27 187
73 267 154 78 78 125 158 150 255 10 36 19 71 21 78 3 9 53 12 209 12 l206 0
-7 -52z m439 -46 l98 -98 -30 -116 c-139 -549 -570 -980 -1119 -1119 l-116
-30 -98 98 -98 98 0 96 0 96 106 17 c497 81 869 453 950 950 l17 106 96 0 96
0 98 -98z m769 -9 c60 -59 108 -111 108 -115 0 -5 -123 -8 -273 -8 l-272 0
-115 115 -115 115 280 0 280 0 107 -107z m-2379 -2025 c-59 -59 -111 -108
-115 -108 -5 0 -8 123 -8 272 l0 273 113 113 112 112 3 -277 2 -277 -107 -108z
m477 165 c0 -150 -3 -273 -7 -273 -4 0 -56 48 -115 107 l-108 108 0 280 0 280
115 -115 115 -115 0 -272z"/>
<path d="M683 1580 c-143 -47 -249 -172 -272 -322 -19 -115 13 -230 91 -321
22 -27 39 -49 37 -50 -2 -2 -38 -20 -80 -40 -185 -92 -325 -259 -389 -462 -15
-47 -24 -108 -27 -183 -6 -108 -5 -114 17 -137 l23 -25 724 0 c721 0 723 0
744 21 20 20 21 29 17 143 -3 99 -9 136 -32 201 -41 120 -98 209 -195 305 -69
69 -104 95 -176 130 -49 25 -92 46 -94 48 -3 1 11 19 31 40 50 53 75 99 94
173 47 182 -41 371 -211 455 -95 47 -205 56 -302 24z m243 -148 c22 -11 55
-37 72 -57 55 -61 67 -93 67 -175 0 -64 -4 -82 -29 -128 -88 -158 -301 -183
-422 -50 -49 54 -67 101 -67 174 -1 110 67 210 170 249 53 20 157 14 209 -13z
m74 -671 c230 -73 408 -288 427 -513 l6 -68 -627 0 -626 0 0 33 c0 17 7 61 16
97 53 226 241 413 469 466 85 19 251 12 335 -15z"/>
<path d="M4216 1589 c-62 -15 -153 -68 -197 -116 -22 -24 -55 -74 -72 -111
-29 -61 -32 -75 -31 -162 0 -117 25 -186 91 -260 25 -28 44 -52 42 -53 -2 -1
-44 -22 -94 -47 -73 -37 -107 -61 -180 -135 -102 -103 -144 -167 -188 -292
-27 -75 -32 -106 -35 -209 -4 -113 -3 -123 17 -143 21 -21 23 -21 744 -21
l724 0 23 25 c22 23 23 29 17 137 -3 75 -12 136 -27 183 -64 203 -204 370
-389 462 -42 20 -78 38 -80 40 -2 1 15 23 37 50 126 149 128 370 4 518 -93
113 -261 168 -406 134z m184 -144 c104 -37 174 -137 173 -249 0 -73 -18 -120
-67 -174 -50 -55 -114 -83 -190 -84 -103 0 -183 46 -232 134 -25 46 -29 64
-29 128 0 83 15 122 69 178 70 75 179 101 276 67z m54 -670 c223 -47 417 -239
470 -465 9 -36 16 -80 16 -97 l0 -33 -625 0 -625 0 0 43 c0 188 148 405 343
504 116 59 282 78 421 48z"/>
</g>
</svg>
